<?xml version="1.0" standalone="no"?>
<!DOCTYPE svg PUBLIC "-//W3C//DTD SVG 20010904//EN"
 "http://www.w3.org/TR/2001/REC-SVG-20010904/DTD/svg10.dtd">
<svg version="1.0" xmlns="http://www.w3.org/2000/svg"
 width="155.000000pt" height="42.000000pt" viewBox="0 0 155.000000 42.000000"
 preserveAspectRatio="xMidYMid meet">

<g transform="translate(0.000000,42.000000) scale(0.100000,-0.100000)"
fill="#000000" stroke="none">
<path d="M195 406 c-35 -15 -95 -80 -95 -102 0 -8 -16 -24 -35 -36 -84 -49
-87 -151 -6 -205 26 -18 48 -23 94 -23 49 0 65 -4 84 -22 l23 -21 23 21 c20
18 36 21 160 24 l139 3 29 33 c41 45 41 102 0 143 -16 16 -36 29 -45 29 -8 0
-33 18 -55 40 -28 29 -48 40 -69 40 -21 0 -35 8 -47 26 -34 53 -136 78 -200
50z m135 -25 c52 -27 80 -74 80 -133 0 -63 -15 -89 -89 -163 l-61 -59 -46 44
c-101 98 -126 173 -83 250 41 72 128 99 199 61z m157 -93 c11 -13 22 -29 25
-37 2 -8 17 -15 33 -17 40 -4 75 -46 75 -89 0 -25 -8 -40 -31 -59 -29 -25 -36
-26 -145 -26 l-114 0 44 55 c47 58 62 103 53 161 -5 30 -3 34 17 34 12 0 32
-10 43 -22z m-373 -126 c8 -15 28 -40 45 -56 17 -17 31 -34 31 -39 0 -5 -25
-7 -57 -5 -48 4 -61 10 -85 37 -40 44 -38 92 4 134 l32 32 8 -38 c4 -21 14
-50 22 -65z"/>
<path d="M1070 245 c0 -37 4 -65 10 -65 6 0 10 11 10 25 0 18 5 25 20 25 11 0
20 5 20 11 0 6 -9 13 -20 16 -13 3 -20 14 -20 29 0 13 -4 24 -10 24 -6 0 -10
-28 -10 -65z"/>
<path d="M1160 295 c0 -8 7 -15 15 -15 8 0 15 -7 15 -15 0 -8 -7 -15 -15 -15
-8 0 -15 -7 -15 -15 0 -12 15 -15 75 -15 60 0 75 3 75 15 0 8 -7 15 -15 15 -8
0 -15 7 -15 15 0 8 7 15 15 15 8 0 15 7 15 15 0 12 -15 15 -75 15 -60 0 -75
-3 -75 -15z m100 -30 c0 -9 -9 -15 -25 -15 -16 0 -25 6 -25 15 0 9 9 15 25 15
16 0 25 -6 25 -15z"/>
<path d="M1407 303 c-4 -3 -7 -19 -7 -34 0 -18 -9 -34 -27 -47 -15 -11 -23
-24 -19 -30 5 -8 16 -5 36 9 l28 22 29 -22 c37 -30 44 -8 9 28 -15 15 -26 39
-26 54 0 26 -9 34 -23 20z"/>
<path d="M1517 303 c-4 -3 -7 -15 -7 -25 0 -11 -7 -18 -20 -18 -11 0 -20 -4
-20 -10 0 -5 9 -10 20 -10 17 0 20 -7 20 -40 0 -29 4 -40 15 -40 12 0 15 15
15 75 0 69 -6 86 -23 68z"/>
<path d="M740 245 c0 -52 1 -55 25 -55 18 0 25 -5 25 -19 0 -16 -8 -20 -42
-23 -23 -2 -43 -9 -46 -15 -3 -10 22 -13 102 -13 88 0 106 3 106 15 0 11 -12
15 -45 15 -38 0 -45 3 -45 19 0 14 8 21 27 23 14 2 28 8 30 15 3 8 -11 10 -51
6 l-56 -6 0 47 c0 34 -4 46 -15 46 -12 0 -15 -13 -15 -55z"/>
<path d="M920 290 c0 -5 18 -10 40 -10 22 0 40 -4 40 -10 0 -5 -18 -10 -40
-10 -39 0 -40 -1 -40 -35 l0 -36 57 3 c31 2 58 8 60 14 3 8 -10 10 -42 7 -30
-4 -45 -2 -45 6 0 6 15 11 34 11 35 0 46 13 46 51 0 16 -7 19 -55 19 -30 0
-55 -4 -55 -10z"/>
<path d="M1132 198 c3 -7 21 -14 41 -16 36 -3 36 -3 16 -23 -10 -10 -19 -28
-19 -38 0 -20 44 -61 65 -61 21 0 65 41 65 61 0 10 -9 28 -19 38 -20 20 -20
20 16 23 20 2 38 9 41 16 3 9 -22 12 -103 12 -81 0 -106 -3 -103 -12z m133
-78 c0 -20 -6 -26 -28 -28 -18 -2 -29 2 -33 12 -11 28 4 48 33 44 22 -2 28 -8
28 -28z"/>
<path d="M977 162 c-48 -53 19 -127 79 -87 28 18 33 65 8 89 -21 22 -67 20
-87 -2z m69 -16 c15 -12 17 -18 8 -33 -17 -27 -58 -24 -62 6 -2 13 2 28 10 32
18 12 21 11 44 -5z"/>
<path d="M1410 120 l0 -41 67 3 c40 2 68 8 70 15 3 8 -11 10 -51 6 l-56 -6 0
32 c0 21 -5 31 -15 31 -11 0 -15 -11 -15 -40z"/>
</g>
</svg>
